<mxfile host="app.diagrams.net" modified="2023-04-29T12:42:42.323Z" agent="Mozilla/5.0 (Windows NT 10.0; Win64; x64) AppleWebKit/537.36 (KHTML, like Gecko) Chrome/112.0.0.0 Safari/537.36" etag="axAYTHgzoBsc1EgwSHDX" version="21.2.3" type="device">
  <diagram id="C5RBs43oDa-KdzZeNtuy" name="Page-1">
    <mxGraphModel dx="435" dy="531" grid="1" gridSize="10" guides="1" tooltips="1" connect="1" arrows="1" fold="1" page="1" pageScale="1" pageWidth="827" pageHeight="1169" math="0" shadow="0">
      <root>
        <mxCell id="WIyWlLk6GJQsqaUBKTNV-0" />
        <mxCell id="WIyWlLk6GJQsqaUBKTNV-1" parent="WIyWlLk6GJQsqaUBKTNV-0" />
        <mxCell id="81eFFHhSawVxwXn9v5xN-0" value="directionConverter" style="ellipse;whiteSpace=wrap;html=1;fontSize=16;" vertex="1" parent="WIyWlLk6GJQsqaUBKTNV-1">
          <mxGeometry x="710" y="120" width="130" height="80" as="geometry" />
        </mxCell>
        <mxCell id="81eFFHhSawVxwXn9v5xN-1" value="splitRow" style="ellipse;whiteSpace=wrap;html=1;fontSize=16;" vertex="1" parent="WIyWlLk6GJQsqaUBKTNV-1">
          <mxGeometry x="220" y="110" width="120" height="60" as="geometry" />
        </mxCell>
        <mxCell id="81eFFHhSawVxwXn9v5xN-2" value="splitColumn&lt;br&gt;Converter" style="ellipse;whiteSpace=wrap;html=1;fontSize=16;" vertex="1" parent="WIyWlLk6GJQsqaUBKTNV-1">
          <mxGeometry x="1290" y="100" width="120" height="80" as="geometry" />
        </mxCell>
        <mxCell id="81eFFHhSawVxwXn9v5xN-3" value="except" style="endArrow=classic;html=1;rounded=0;fontSize=12;startSize=8;endSize=8;curved=1;exitX=0.5;exitY=1;exitDx=0;exitDy=0;entryX=0.5;entryY=0;entryDx=0;entryDy=0;" edge="1" parent="WIyWlLk6GJQsqaUBKTNV-1" source="81eFFHhSawVxwXn9v5xN-1" target="81eFFHhSawVxwXn9v5xN-13">
          <mxGeometry width="50" height="50" relative="1" as="geometry">
            <mxPoint x="330" y="150" as="sourcePoint" />
            <mxPoint x="180" y="200" as="targetPoint" />
          </mxGeometry>
        </mxCell>
        <mxCell id="81eFFHhSawVxwXn9v5xN-4" value="try" style="endArrow=classic;html=1;rounded=0;fontSize=12;startSize=8;endSize=8;curved=1;exitX=0.5;exitY=1;exitDx=0;exitDy=0;entryX=0.5;entryY=0;entryDx=0;entryDy=0;" edge="1" parent="WIyWlLk6GJQsqaUBKTNV-1" source="81eFFHhSawVxwXn9v5xN-1" target="81eFFHhSawVxwXn9v5xN-6">
          <mxGeometry width="50" height="50" relative="1" as="geometry">
            <mxPoint x="330" y="150" as="sourcePoint" />
            <mxPoint x="350" y="210" as="targetPoint" />
          </mxGeometry>
        </mxCell>
        <mxCell id="81eFFHhSawVxwXn9v5xN-8" value="" style="edgeStyle=none;curved=1;rounded=0;orthogonalLoop=1;jettySize=auto;html=1;fontSize=12;startSize=8;endSize=8;" edge="1" parent="WIyWlLk6GJQsqaUBKTNV-1" source="81eFFHhSawVxwXn9v5xN-6" target="81eFFHhSawVxwXn9v5xN-7">
          <mxGeometry relative="1" as="geometry" />
        </mxCell>
        <mxCell id="81eFFHhSawVxwXn9v5xN-6" value="nehme alles nach dem ersten Zeichen aus dem placementInput und schreibe es auf startingRow" style="rounded=1;whiteSpace=wrap;html=1;fontSize=16;" vertex="1" parent="WIyWlLk6GJQsqaUBKTNV-1">
          <mxGeometry x="310" y="210" width="180" height="100" as="geometry" />
        </mxCell>
        <mxCell id="81eFFHhSawVxwXn9v5xN-10" value="ja" style="edgeStyle=none;curved=1;rounded=0;orthogonalLoop=1;jettySize=auto;html=1;fontSize=12;startSize=8;endSize=8;" edge="1" parent="WIyWlLk6GJQsqaUBKTNV-1" source="81eFFHhSawVxwXn9v5xN-7" target="81eFFHhSawVxwXn9v5xN-9">
          <mxGeometry relative="1" as="geometry" />
        </mxCell>
        <mxCell id="81eFFHhSawVxwXn9v5xN-12" value="nein" style="edgeStyle=none;curved=1;rounded=0;orthogonalLoop=1;jettySize=auto;html=1;fontSize=12;startSize=8;endSize=8;" edge="1" parent="WIyWlLk6GJQsqaUBKTNV-1" source="81eFFHhSawVxwXn9v5xN-7" target="81eFFHhSawVxwXn9v5xN-11">
          <mxGeometry relative="1" as="geometry" />
        </mxCell>
        <mxCell id="81eFFHhSawVxwXn9v5xN-7" value="0&amp;lt;&lt;br&gt;startingRow&lt;br&gt;&amp;lt;=10" style="rhombus;whiteSpace=wrap;html=1;fontSize=16;" vertex="1" parent="WIyWlLk6GJQsqaUBKTNV-1">
          <mxGeometry x="360" y="350" width="90" height="80" as="geometry" />
        </mxCell>
        <mxCell id="81eFFHhSawVxwXn9v5xN-9" value="gebe startingRow zurück" style="rounded=1;whiteSpace=wrap;html=1;fontSize=16;" vertex="1" parent="WIyWlLk6GJQsqaUBKTNV-1">
          <mxGeometry x="345" y="470" width="120" height="60" as="geometry" />
        </mxCell>
        <mxCell id="81eFFHhSawVxwXn9v5xN-11" value="raise ValueError" style="rounded=1;whiteSpace=wrap;html=1;fontSize=16;" vertex="1" parent="WIyWlLk6GJQsqaUBKTNV-1">
          <mxGeometry x="510" y="360" width="120" height="40" as="geometry" />
        </mxCell>
        <mxCell id="81eFFHhSawVxwXn9v5xN-13" value="setzte startingRow = 11 und gebe diese zurück" style="rounded=1;whiteSpace=wrap;html=1;fontSize=16;" vertex="1" parent="WIyWlLk6GJQsqaUBKTNV-1">
          <mxGeometry x="80" y="230" width="120" height="80" as="geometry" />
        </mxCell>
      </root>
    </mxGraphModel>
  </diagram>
</mxfile>
